<?xml version="1.0" standalone="no"?>
<!DOCTYPE svg PUBLIC "-//W3C//DTD SVG 20010904//EN"
 "http://www.w3.org/TR/2001/REC-SVG-20010904/DTD/svg10.dtd">
<svg version="1.0" xmlns="http://www.w3.org/2000/svg"
 width="200.000000pt" height="200.000000pt" viewBox="0 0 200.000000 200.000000"
 preserveAspectRatio="xMidYMid meet">
<metadata>
Created by potrace 1.11, written by Peter Selinger 2001-2013
</metadata>
<g transform="translate(0.000000,200.000000) scale(0.100000,-0.100000)"
fill="#000000" stroke="none">
<path d="M984 1868 c-4 -13 -29 -70 -56 -128 -28 -58 -81 -175 -120 -260 -38
-85 -94 -206 -124 -269 -30 -62 -54 -115 -54 -117 0 -1 -17 -40 -38 -86 -22
-46 -56 -120 -76 -166 l-37 -82 147 -188 c172 -218 302 -381 345 -434 l30 -38
211 268 c116 147 233 295 261 330 l49 63 -57 127 c-32 70 -80 174 -107 231
-26 57 -48 105 -48 107 0 1 -27 60 -60 129 -33 69 -60 128 -60 130 0 2 -24 55
-53 117 -29 62 -71 152 -92 200 -22 48 -43 88 -47 88 -4 0 -10 -10 -14 -22z
m38 -165 c16 -38 325 -712 390 -853 l35 -75 -224 -3 c-122 -1 -324 -1 -446 0
l-224 3 31 66 c17 36 46 99 65 140 18 41 46 101 61 134 15 33 44 96 64 140
174 381 222 484 226 485 3 0 13 -17 22 -37z"/>
</g>
</svg>
