<?xml version="1.0" encoding="utf-8"?>
<!-- Generator: Adobe Illustrator 25.0.0, SVG Export Plug-In . SVG Version: 6.00 Build 0)  -->
<svg version="1.1" id="Layer_1" xmlns="http://www.w3.org/2000/svg" xmlns:xlink="http://www.w3.org/1999/xlink" x="0px" y="0px"
	 viewBox="0 0 707.7 736" style="enable-background:new 0 0 707.7 736;" xml:space="preserve">
<style type="text/css">
	.st0{fill:#FFFFFF;}
	.st1{fill:#EFE1C6;}
	.st2{fill:#8E0028;}
</style>
<g>
	<path class="st0" d="M697.6,352.2l-18.1-8.1c0.5-3.5,0.7-7.8,0.5-12.7c-0.8-16.5-7.3-32-18.8-44.8l-18.6-20.9l0.8,27.6
		c0,0.6-0.4,4.1-2.4,9.4c-1.7,4.3-4.8,10.6-10.7,18l-4.1-2.1l-10.1-26.2l41.9-87.8l3.2,15.3l13.4-21.8c0.4-0.6,3.5-5.7,6.1-14.5
		c3.1-10.5,4.3-21.9,3.4-33.3l9.1-18.6l1.2-2.5l-0.2-2.7c-0.1-0.7-5.1-72-5.7-84c-0.3-5.9-5.6-15-12.9-22.3c-7-7-19-15.2-36.2-15.2
		c-6.4,0-12.5,1-18.2,3.1c-4.2,1.5-7.4,3.3-8.8,4.4c-1.4,1.1-17.7,13.7-40.4,31.3C506,94.7,440.9,145.1,426,156.8
		c-0.4,0-0.7,0-1.1,0c-6.2,0-19.1,0.4-35.9,3c-19.5,3-38.5,8.1-56.4,15.1c-23.4,9.1-44.8,21.5-63.6,36.7c-22.2,18-41,40.1-55.8,65.8
		L7.9,442.4L0,448.7l6.2,7.9c0.7,0.9,1.7,2.3,2.9,3.9c6.3,8.7,18.1,24.8,36.7,38.7c23,17.2,49.6,26,78.9,26c8.1,0,16.4-0.7,24.9-2
		l0.2,0l0.2,0l39.7-7.5c1.4,5.5,3.5,13.1,6.3,22.2c8.3,27.3,23.8,67.5,50.5,104.5c14.8,20.5,31.5,38,49.8,52
		c21.4,16.3,45.2,28.2,70.9,35.1l23.7,6.4l-12.2-21.3c-0.1-0.2-14.5-25.7-24.3-59.9c-6.7-23.4-12.3-54.7-7-84.8
		c3.7,9,8.3,19.2,13.9,29.6c9.6,17.7,20,32.1,31.1,42.8c14.7,14.2,30.5,22,47.1,23.3l25.2,2l-16.7-18.8
		c-0.5-0.5-12.4-14.9-19.4-39.5c-8-28.1-6.7-57.9,3.7-88.8c3,3.8,6.6,8,10.8,12.2c8.5,8.5,17.7,15.4,27.3,20.3
		c12.3,6.3,25.2,9.5,38.5,9.6l21.1,0l-13.1-16.6c-3.5-4.4-6.4-10.2-9.7-17.6c-11.4-25.2-14.4-54.6-8.3-80.1l109.2,4.2l2.3,0.1
		l2.1-0.9l52.6-22.1l3.3-1.4l1.7-3.1l32.5-58.8l5.4-9.7L697.6,352.2z M661,420.3l-52.6,22.1l-117.3-4.5c-10.7,34-4.6,69.6,6.7,94.8
		c3.4,7.6,6.8,14.3,11,19.7c-50.9-0.1-79-53.7-79-53.7c-42.6,96.1,10.4,156.8,10.4,156.8c-62-4.9-93.6-118-93.6-118
		c-36.2,78.3,23.1,182.1,23.1,182.1c-104.2-28.3-148-132-164.1-184.7c-5.8-19-8.4-31.1-8.4-31.1s0,0-49.2,9.2
		c-85.9,13.5-123.5-49.6-133.8-62.8l206.9-166.2C288,165.6,416.9,166.4,429.4,167.1c5.6-4.6,184.7-143.2,189.4-146.9
		c0.7-0.5,8.3-5.4,20.6-5.4c25.7,0,38.7,23.5,38.9,27.8c0.6,12.2,5.7,84.2,5.7,84.2l-10.4,21.2c2.9,27.1-7.8,44.4-7.8,44.4
		c-1.3-6.1-6.1-15.7-6.1-15.7L605,291.7l13.1,34l14.7,7.4c20.7-22.2,20.8-39.9,20.8-39.9c24.2,27.1,14.2,56.8,14.2,56.8l25.6,11.4
		L661,420.3z"/>
	<path d="M618.6,108L491,253.6c0,0-29,11.2-49.1,26.4c-4.3,3.2-8,6.9-11.1,10.4c0,0,33.7,6.4,36.7,29c0,0-10.9,6.4-27.1,18.6
		c-58.8,44.3-189.5,161.3-138,289.6c6.8,17,16.9,33.9,30.7,51.1c-28.7-34.2-77.6-112.3-27.6-214.8c-40,9.5-46-17.7-46-17.7
		c53.3,37.3,169.8-118.4,141.3-155.3c0,0,48.6-39.5,83.1-44.4L618.6,108z M547.3,231.8l-38.9,47.9l34,62.6l-23-62.8L547.3,231.8z
		 M201.4,338.2l-47.1,37.7c6.4,4.9-9.9,10.7-14.8,40.6c-4.9,30,7.6,43.3,3.7,47.3c-5.3,4.4-28.8-4.5-34.9-9.2
		c3.4,17.8,20.1,26.1,18.3,29.6c1.6,0.1,3.1,0.1,4.5,0.1c2.7,0,10.1-0.4,15-1.4c15.7-3.1,77.6-13.5,77.6-13.5
		C210.3,465,104.3,433.9,201.4,338.2z M693.4,361.5L661,420.3l-52.6,22.1l-117.3-4.5c-10.7,34-4.6,69.6,6.7,94.8
		c3.4,7.6,6.8,14.3,11,19.7c-50.9-0.1-79-53.7-79-53.7c-42.6,96.1,10.4,156.8,10.4,156.8c-62-4.9-93.6-118-93.6-118
		c-36.2,78.3,23.1,182.1,23.1,182.1c-104.2-28.3-148-132-164.1-184.7c-5.8-19-8.4-31.1-8.4-31.1s0,0-49.2,9.2
		c-85.9,13.5-123.5-49.6-133.8-62.8l206.9-166.2C288,165.6,416.9,166.4,429.4,167.1c5.6-4.6,184.7-143.2,189.4-146.9
		c0.7-0.5,8.3-5.4,20.6-5.4c25.7,0,38.7,23.5,38.9,27.8c0.6,12.2,5.7,84.2,5.7,84.2l-10.4,21.2c2.9,27.1-7.8,44.4-7.8,44.4
		c-1.3-6.1-6.1-15.7-6.1-15.7L605,291.7l13.1,34l14.7,7.4c20.7-22.2,20.8-39.9,20.8-39.9c24.2,27.1,14.2,56.8,14.2,56.8L693.4,361.5
		z M365.2,204.7c0,0,13.7-3.4,33.1-2.4c1.3-3.9-4.9-4.7-9.8-4.7c7.8-5.6,20.1-9.5,20.1-9.5l6.7-8
		C395.1,181.7,365.2,204.7,365.2,204.7z M654.3,405.8l24-43.3l-20.8-9.6c0,0,6.9-24.1-0.8-41.3c-4.3,14.9-13.1,24.5-20.4,31.1
		L609.9,330l53.4,34.6l-32.2,7.6l-29.5-10.6c0,0,5.8-31.3-1.8-42.1c-0.4,2.4-2.2,5.9-3.2,8.3c-5.7,13.8-18.1,25-18.1,25l-28.5-10.3
		l-23.4-61.3l85.5-138.2c0,0,9.4,9.5,14.1,21.1c5.7-17.8-2.6-40.1-2.6-40.1l10.2-16.5l24.8-18l4.6,22.6l-40.8,113.1l32.4-69.8
		c0,0,1.6,1.4,3.8,4.6c2.3,3.3,5.3,8.5,6.9,12.8c3.8-9.7-1.5-35.6-1.5-35.6l9.4-17.3l0,0l0,0l0,0l0,0l-4.6-69.9
		c-3.8,4.7-9.4,24.3-9.4,24.3s-0.6-16.2-8.2-26.4c-7.2-9.6-16.1-1.2-22.3-10.1c-2.8-4.1-2.7-10-2.7-10L608.9,41
		c0,0-4.7,18.8-3.7,41.8c0,0-10.4-8.2-16.3-24.3c0,0-4.1,9.4-4.3,44.1c0,0-11.2-10.2-17.7-26.7c0,0-5.1,21.6-4.5,47.9
		c0,0-9.8-7.3-19.8-29.4c0,0-4.9,25.7-4.5,52.8c0,0-15.9-14.5-22-34.1c0,0-76.2,58.3-81.5,62.4c-5.3,4.1-38.2,40-46.6,78.6
		c0,0-0.9-19.1,1.8-37.2c0,0-32.4,23.1-50.7,42.9c0,0-0.5-24.4,13.1-44.9c0,0-4.8,3.1-10.9,7.9c-3.8,3-7.5,6.3-12.7,11
		c-13.1,11.6-29.1,26.8-39.1,37c0,0,27.2-51.4,68.7-80.7c0,0-106.5,23.7-143.9,141c-1-1.1,1.8-27,1.8-27L33.9,448.9
		C75.5,506.3,144,498.4,151.6,497c22.7-4,93.2-15.1,93.2-15.1s-11.5-29.2-9.1-48.4c0,0,7.8,37.6,34.4,61l-58.2,8
		c0,0,3.1,11.9,8.3,29.4C233.4,576.1,267,659.4,350.4,698c0,0-0.7-0.8-2.1-2.2c0.7,0.7,1.4,1.5,2.1,2.2c0,0-32.5-55.2-23.8-131.7
		c7.6-43.9,29.1-69.4,29.1-69.4s1.9,54.7,41.4,107.7c5.1,7.8,10.9,14.9,17.7,20.8C399.5,589.7,401.5,551,409,518
		c1.8,1.4,4.6,1.1,6-2.1c2.2-5.2,14.1-39.4,18.8-39.8c1.8-0.2,3.9,9.8,10.1,19.9c9.9,16.3,28.7,35.9,39.2,35.9
		c4.6,0,5.4-0.6,5.4-0.6l0,0c0,0,0,0,0,0c0,0,0,0,0,0c-27.3-57.6-4-110.8-4-110.8l123.8,4.9l17-7.3l21.3-21l-21.3,21l0,0
		L654.3,405.8L654.3,405.8z M589.1,285.8l9.8-26.5l-17.9,26.3l17.7,24.9L589.1,285.8z"/>
	<path class="st1" d="M657.5,353c0,0,6.9-24.1-0.8-41.3c-4.3,14.9-13.1,24.5-20.4,31.1L609.9,330l53.4,34.6l-32.2,7.6l-29.5-10.6
		c0,0,5.8-31.3-1.8-42.1c-0.4,2.4-2.2,5.9-3.2,8.3c-5.7,13.8-18.1,25-18.1,25l-28.5-10.3l-23.4-61.3l85.5-138.2
		c0,0,9.4,9.5,14.1,21.1c5.7-17.8-2.6-40.1-2.6-40.1l10.2-16.5l24.8-18l4.6,22.6l-40.8,113.1l32.4-69.8c0,0,1.6,1.4,3.8,4.6
		c2.3,3.3,5.3,8.5,6.9,12.8c3.8-9.7-1.5-35.6-1.5-35.6l9.4-17.3l-11.4-42.2l-43.3,29.9L491,253.6c0,0-29,11.2-49.1,26.4
		c-4.3,3.2-8,6.9-11.1,10.4c0,0,33.7,6.4,36.7,29c0,0-10.9,6.4-27.1,18.6c-58.8,44.3-189.5,161.3-138,289.6
		c9.4,23.4,24.9,46.7,47.9,70.5c0,0-64.9-109.9,13.1-234.7c0,2.9-0.2,117.5,51.2,162.2c-36.8-86.9,27.2-190.4,27.2-190.4
		c-11.7,53.4,46.6,96.1,46.6,96.1c-27.3-57.6-4-110.8-4-110.8l123.8,4.9l17-7.3l21.3-21l7.8,8.8l24-43.3L657.5,353z M508.4,279.7
		l38.9-47.9l-27.9,47.6l23,62.8L508.4,279.7z M139.5,416.5c-4.9,30,7.6,43.3,3.7,47.3c-5.3,4.4-28.8-4.5-34.9-9.2
		c3.4,17.8,20.1,26.1,18.3,29.6c-18.9-1-53.7-7.9-67.5-32l95.2-76.3C160.7,380.9,144.4,386.7,139.5,416.5z M365.2,204.7
		c0,0,29.9-22.9,50.1-24.6l-6.7,8c0,0-12.3,3.9-20.1,9.5c4.9,0,11.1,0.8,9.8,4.7C378.9,201.3,365.2,204.7,365.2,204.7z"/>
	<path class="st2" d="M488.4,531.2L488.4,531.2c0,0-0.7,0.7-5.4,0.7c-10.5,0-29.2-19.6-39.2-35.9c-6.1-10.1-8.3-20-10.1-19.9
		c-4.6,0.4-16.6,34.7-18.8,39.8c-1.4,3.2-4.2,3.5-6,2.1c10.7-47.1,32.8-82.9,32.8-82.9C430.3,488.2,487.7,530.6,488.4,531.2z
		 M654.3,405.8l-7.8-8.8l-21.3,21l0,0L654.3,405.8L654.3,405.8L654.3,405.8z M326.5,566.5c7.6-43.9,29.1-69.5,29.1-69.5
		s1.9,54.7,41.4,107.7c-33.7-52-33.5-138.9-33.5-141.4C340.7,499.8,330.1,534.9,326.5,566.5z M673.5,120.1l-14-34.9l-40.8,22.7
		L484,246.5c-34.5,4.9-83.1,44.4-83.1,44.4c28.4,36.9-88,192.5-141.3,155.3c0,0,6,27.2,46,17.7c-50,102.5-1,180.6,27.6,214.8
		c10.1,12.1,17.2,19.4,17.2,19.4C267,659.4,233.4,576.1,220.3,531.8c-5.2-17.5-8.3-29.4-8.3-29.4l58.2-8c-26.6-23.4-34.4-61-34.4-61
		c-2.4,19.3,9.1,48.4,9.1,48.4S174.3,493,151.6,497c-7.6,1.4-76.1,9.2-117.8-48.1l182.3-144.7c0,0-2.9,25.9-1.8,27
		c37.3-117.2,143.9-141,143.9-141c-41.5,29.3-68.7,80.7-68.7,80.7c10-10.2,26-25.3,39.1-37c5.2-4.6,8.9-8,12.7-11
		c6-4.8,10.9-7.9,10.9-7.9c-13.6,20.4-13.1,44.9-13.1,44.9c18.2-19.9,50.7-42.9,50.7-42.9c-2.7,18.2-1.8,37.2-1.8,37.2
		c8.4-38.7,41.3-74.6,46.6-78.6c5.3-4.1,81.5-62.4,81.5-62.4c6.1,19.6,22,34.1,22,34.1c-0.4-27.1,4.5-52.8,4.5-52.8
		c10,22,19.8,29.4,19.8,29.4c-0.6-26.3,4.5-47.9,4.5-47.9c6.5,16.5,17.7,26.7,17.7,26.7c0.2-34.7,4.3-44.1,4.3-44.1
		c5.9,16.1,16.3,24.3,16.3,24.3c-1-23,3.7-41.8,3.7-41.8L626.2,28c0,0-0.1,5.9,2.7,10c6.2,8.9,15.2,0.5,22.3,10.1
		c7.6,10.2,8.2,26.4,8.2,26.4s5.6-19.6,9.4-24.3L673.5,120.1z M223.7,469.5c-13.5-4.5-119.4-35.6-22.3-131.4L59.2,452.3
		c14.9,26.1,54.7,32,71.9,32.1c2.7,0,10.1-0.4,15-1.4C161.8,479.9,223.7,469.5,223.7,469.5z M580.9,285.6l17.7,24.9l-9.6-24.7
		l9.8-26.5L580.9,285.6z"/>
</g>
</svg>
