<?xml version="1.0" encoding="UTF-8" standalone="no"?>
<!-- Created with Inkscape (http://www.inkscape.org/) -->

<svg
   xmlns:dc="http://purl.org/dc/elements/1.1/"
   xmlns:cc="http://creativecommons.org/ns#"
   xmlns:rdf="http://www.w3.org/1999/02/22-rdf-syntax-ns#"
   xmlns:svg="http://www.w3.org/2000/svg"
   xmlns="http://www.w3.org/2000/svg"
   xmlns:sodipodi="http://sodipodi.sourceforge.net/DTD/sodipodi-0.dtd"
   xmlns:inkscape="http://www.inkscape.org/namespaces/inkscape"
   id="svg3336"
   version="1.1"
   inkscape:version="0.91 r13725"
   xml:space="preserve"
   width="800"
   height="344.22281"
   viewBox="0 0 800 344.22281"
   sodipodi:docname="Turtle2.svg"><metadata
     id="metadata3342"><rdf:RDF><cc:Work
         rdf:about=""><dc:format>image/svg+xml</dc:format><dc:type
           rdf:resource="http://purl.org/dc/dcmitype/StillImage" /><dc:title></dc:title></cc:Work></rdf:RDF></metadata><defs
     id="defs3340" /><sodipodi:namedview
     pagecolor="#ffffff"
     bordercolor="#666666"
     borderopacity="1"
     objecttolerance="10"
     gridtolerance="10"
     guidetolerance="10"
     inkscape:pageopacity="0"
     inkscape:pageshadow="2"
     inkscape:window-width="1600"
     inkscape:window-height="837"
     id="namedview3338"
     showgrid="false"
     fit-margin-top="0"
     fit-margin-left="0"
     fit-margin-right="0"
     fit-margin-bottom="0"
     inkscape:zoom="1.38"
     inkscape:cx="400"
     inkscape:cy="172.1114"
     inkscape:window-x="-8"
     inkscape:window-y="-8"
     inkscape:window-maximized="1"
     inkscape:current-layer="g3344" /><g
     id="g3344"
     inkscape:groupmode="layer"
     inkscape:label="flag-1040552"
     transform="matrix(1.25,0,0,-1.25,-488.97439,859.73372)"><path
       d=""
       style="fill:#15366f;fill-opacity:1;fill-rule:nonzero;stroke:#000000;stroke-width:0.25;stroke-linecap:butt;stroke-linejoin:miter;stroke-miterlimit:4;stroke-dasharray:none;stroke-opacity:1"
       id="path3348"
       inkscape:connector-curvature="0" /><path
       d=""
       style="fill:#ffffff;fill-opacity:1;fill-rule:nonzero;stroke:#000000;stroke-width:0.125;stroke-linecap:butt;stroke-linejoin:miter;stroke-miterlimit:4;stroke-dasharray:none;stroke-opacity:1"
       id="path3364"
       inkscape:connector-curvature="0" /><g
       id="g4062"
       transform="matrix(30.38179,0,0,30.38179,-11493.549,-12117.324)"><path
         inkscape:connector-curvature="0"
         id="path3476"
         style="fill:#37a536;fill-opacity:1;fill-rule:nonzero;stroke:#000000;stroke-width:0.125;stroke-linecap:butt;stroke-linejoin:miter;stroke-miterlimit:4;stroke-dasharray:none;stroke-opacity:1"
         d="m 396.30811,419.89795 c -0.50879,0 -0.9004,0.27051 -1.17237,0.59717 -0.55273,0.66357 -1.92383,0.93994 -2.47705,0.37597 -0.1748,-0.17871 -0.46484,-0.18066 -0.68555,-0.19921 -0.39794,-0.0332 -0.84033,-0.36475 -0.70751,-1.0835 0.28759,0.19336 0.39794,-0.0332 0.57519,0.005 0.15039,0.0332 0.0772,-0.11523 0.0772,-0.22656 0,-0.38721 0.81836,-1.09473 1.57031,-1.0503 0.75195,0.0439 1.1377,-0.27832 1.29395,-0.40918 0.20996,-0.17724 0.0107,-0.14404 0.22119,-0.48681 0.15381,-0.25098 0.24512,-0.2876 -0.13281,-0.60791 -0.50879,-0.43115 -0.8628,-1.44873 0.0439,-2.17871 0.90674,-0.72949 3.29541,-1.83545 5.92725,0.22119 2.63183,2.05664 6.65674,0.90674 6.96631,0.17724 0.30957,-0.72998 0.46435,-1.12792 0.53076,-1.48193 0.0664,-0.354 0.46435,-0.57519 0.95117,-0.55273 0.48633,0.022 1.06152,-0.22119 1.39307,-0.42041 0.33154,-0.19922 0.82763,-0.15674 0.72998,0.50879 -0.29883,2.03466 -1.52588,2.333 -1.6919,3.25097 0.74072,-0.0884 1.23828,-0.0884 1.50391,0.19922 0.26513,0.28711 0.53076,0.81787 0.77392,0.96192 0.24317,0.14355 0.26563,0.29834 -0.0664,0.19873 -0.33155,-0.0996 -0.57715,-0.25245 -1.19434,-0.17676 -3.32812,0.40918 -12.6167,2.88623 -14.43017,2.37744 z" /><path
         inkscape:connector-curvature="0"
         id="path3478"
         style="fill:#000000;fill-opacity:1;fill-rule:nonzero;stroke:#000000;stroke-width:0.125;stroke-linecap:butt;stroke-linejoin:miter;stroke-miterlimit:4;stroke-dasharray:none;stroke-opacity:1"
         d="m 411.04248,417.49854 c -0.37598,-0.2212 -0.71387,-0.62647 -1.4209,-1.49268 -0.70703,-0.8667 -2.83105,-1.81006 -5.47656,-1.81006 -2.64502,0 -4.18311,0.38086 -5.38135,1.32227 -0.63867,0.50195 -1.13867,0.82422 -1.55078,1.00341 -0.83105,0.36133 -0.94922,1.14258 -0.75,1.82813 -0.19238,-0.39844 -0.37598,-0.70752 -0.77393,-0.68555 -0.25781,0.0147 -0.85156,0.0444 -0.68554,-0.24316 -0.11084,0.15478 -0.083,0.3706 -0.16065,0.43115 -0.0771,0.061 -0.14941,0.11084 -0.19336,0.15479 0.2544,-0.16553 0.75147,0.24853 1.12793,0.23242 0.2544,-0.0112 0.64551,0.33496 0.53858,0.77539 -0.0752,0.3081 -0.146,0.6206 -0.18506,0.90527 0.53076,0.26563 8.13867,-1.10547 9.64258,-1.19433 1.5039,-0.0884 5.84424,-0.7627 5.26904,-1.22705 z" /><path
         inkscape:connector-curvature="0"
         id="path3480"
         style="fill:#37a536;fill-opacity:1;fill-rule:nonzero;stroke:#000000;stroke-width:0.125;stroke-linecap:butt;stroke-linejoin:miter;stroke-miterlimit:4;stroke-dasharray:none;stroke-opacity:1"
         d="m 397.3252,420.18555 c 0.708,0.77392 1.59228,1.08349 2.47705,0.92871 l 0.22119,0 c 0.39795,0.33154 1.41552,0.39795 1.99023,0.13281 l 0.3208,-0.0112 c 0.81836,0.2876 2.521,-0.0107 3.10742,-0.59717 l 0.20997,-0.0996 c 1.89062,0.13282 3.08154,-0.78125 4.40087,-2.10058 0.19922,-0.19922 0.36524,-0.48682 0.76319,-0.55323 0.39795,-0.0659 0.53076,-0.24316 0.11035,-0.46435 -0.41992,-0.22119 -0.77393,-0.57471 -1.45947,-1.41504 -0.68555,-0.84082 -2.76465,-1.65918 -5.33008,-1.65918 -2.56543,0 -4.05664,0.36963 -5.21924,1.28271 -0.61914,0.48682 -1.10547,0.79639 -1.50391,0.97315 -0.39794,0.17725 -0.97265,0.70801 -0.81787,1.30517 0.15479,0.59668 -0.19922,1.32667 -0.46484,2.01221 0.19922,0.15479 0.75195,0.33203 1.03955,0.19922 l 0.15479,0.0664 z" /><path
         inkscape:connector-curvature="0"
         id="path3482"
         style="fill:#004e3a;fill-opacity:1;fill-rule:nonzero;stroke:#000000;stroke-width:0.125;stroke-linecap:butt;stroke-linejoin:miter;stroke-miterlimit:4;stroke-dasharray:none;stroke-opacity:1"
         d="m 410.05273,418.43848 c -1.31933,1.31933 -2.51025,2.2334 -4.40087,2.10058 -0.022,-0.0772 -0.0498,-0.31494 -0.0884,-0.45898 1.12793,-0.46436 2.79736,-1.70801 3.50537,-2.66992 0.3208,0.28711 0.80713,0.66308 0.98388,1.02832 z" /><path
         inkscape:connector-curvature="0"
         id="path3484"
         style="fill:#004e3a;fill-opacity:1;fill-rule:nonzero;stroke:#000000;stroke-width:0.125;stroke-linecap:butt;stroke-linejoin:miter;stroke-miterlimit:4;stroke-dasharray:none;stroke-opacity:1"
         d="m 405.44189,420.63867 c -0.58642,0.58643 -2.28906,0.88477 -3.10742,0.59717 0.0112,-0.27637 -0.0439,-0.74072 -0.15478,-1.02832 0.47558,-0.23242 0.93994,-0.69678 1.34912,-1.22754 0.26514,0.11084 0.98389,0.27686 1.34912,0.354 0.18799,0.33155 0.44238,0.91797 0.56396,1.30469 z" /><path
         inkscape:connector-curvature="0"
         id="path3486"
         style="fill:#004e3a;fill-opacity:1;fill-rule:nonzero;stroke:#000000;stroke-width:0.125;stroke-linecap:butt;stroke-linejoin:miter;stroke-miterlimit:4;stroke-dasharray:none;stroke-opacity:1"
         d="m 402.01367,421.24707 c -0.57471,0.26514 -1.59228,0.19873 -1.99023,-0.13281 -0.13281,-0.30957 -0.24317,-0.88477 -0.2544,-1.17188 0.27637,-0.0332 0.70752,-0.22119 0.90674,-0.40918 0.44238,0.16553 0.98438,0.46436 1.20508,0.68555 0.0889,0.28711 0.19922,0.72949 0.13281,1.02832 z" /><path
         inkscape:connector-curvature="0"
         id="path3488"
         style="fill:#004e3a;fill-opacity:1;fill-rule:nonzero;stroke:#000000;stroke-width:0.125;stroke-linecap:butt;stroke-linejoin:miter;stroke-miterlimit:4;stroke-dasharray:none;stroke-opacity:1"
         d="m 397.3252,420.18555 c 0.708,0.77392 1.59228,1.08349 2.47705,0.92871 -0.13282,-0.23194 -0.23194,-0.70752 -0.2544,-1.13916 -0.72949,0.0664 -1.78027,-0.15479 -2.17822,-0.41992 0,0.14355 -0.0444,0.45312 -0.0444,0.63037 z" /><path
         inkscape:connector-curvature="0"
         id="path3490"
         style="fill:#004e3a;fill-opacity:1;fill-rule:nonzero;stroke:#000000;stroke-width:0.125;stroke-linecap:butt;stroke-linejoin:miter;stroke-miterlimit:4;stroke-dasharray:none;stroke-opacity:1"
         d="m 408.82471,417.27686 c -0.70899,0.90576 -2.22901,2.03906 -3.3169,2.53222 -0.0439,-0.11084 -0.17676,-0.39746 -0.24316,-0.5747 0.42041,-0.68555 1.26074,-2.14502 1.63672,-2.89698 0.39795,0.16602 1.40332,0.55176 1.92334,0.93946 z" /><path
         inkscape:connector-curvature="0"
         id="path3492"
         style="fill:#004e3a;fill-opacity:1;fill-rule:nonzero;stroke:#000000;stroke-width:0.125;stroke-linecap:butt;stroke-linejoin:miter;stroke-miterlimit:4;stroke-dasharray:none;stroke-opacity:1"
         d="m 403.29639,415.6626 c 0.19922,1.00635 0.22119,2.48828 0.23242,2.9414 0.36474,0.0996 1.10547,0.29883 1.38232,0.36524 0.35352,-0.58643 1.19385,-2.03467 1.55908,-2.76465 -0.85156,-0.26514 -2.31103,-0.56396 -3.17382,-0.54199 z" /><path
         inkscape:connector-curvature="0"
         id="path3494"
         style="fill:#004e3a;fill-opacity:1;fill-rule:nonzero;stroke:#000000;stroke-width:0.125;stroke-linecap:butt;stroke-linejoin:miter;stroke-miterlimit:4;stroke-dasharray:none;stroke-opacity:1"
         d="m 400.79736,419.146 c 0.36524,0.16601 0.896,0.43115 1.21631,0.68554 0.3208,-0.20996 0.85156,-0.70752 1.06153,-0.99511 0,-0.66358 -0.15479,-2.49903 -0.24317,-3.1626 -0.60791,0 -1.53711,0.12158 -2.05664,0.41992 0.11035,1.08398 0.15479,2.34473 0.022,3.05225 z" /><path
         inkscape:connector-curvature="0"
         id="path3496"
         style="fill:#004e3a;fill-opacity:1;fill-rule:nonzero;stroke:#000000;stroke-width:0.125;stroke-linecap:butt;stroke-linejoin:miter;stroke-miterlimit:4;stroke-dasharray:none;stroke-opacity:1"
         d="m 397.21484,418.23926 c 0.0772,0.20996 0.0996,0.65234 0.11036,0.88476 0.61962,0.35352 2.04589,0.71875 3.08544,0.15479 0.11036,-0.72998 0.0327,-2.48828 -0.0225,-2.91943 -0.92871,0.70751 -2.49902,1.72509 -3.17334,1.87988 z" /><path
         inkscape:connector-curvature="0"
         id="path3498"
         style="fill:#000000;fill-opacity:1;fill-rule:nonzero;stroke:none"
         d="m 393.58789,419.54395 c -0.14941,0 -0.17041,0.42041 -0.50879,0.42041 -0.0552,0 -0.23779,-0.0332 -0.354,0.0107 0.0225,-0.0991 0.0972,-0.23926 0.13281,-0.32031 0.0942,-0.21583 0.47559,-0.0664 0.72998,-0.11084 z" /><path
         inkscape:connector-curvature="0"
         id="path3500"
         style="fill:none;stroke:#000000;stroke-width:0.125;stroke-linecap:butt;stroke-linejoin:miter;stroke-miterlimit:4;stroke-dasharray:none;stroke-opacity:1"
         d="m 393.58789,418.32764 c 0.87354,0.022 1.03906,1.06152 1.44873,1.19433" /><path
         inkscape:connector-curvature="0"
         id="path3502"
         style="fill:none;stroke:#000000;stroke-width:0.125;stroke-linecap:butt;stroke-linejoin:miter;stroke-miterlimit:4;stroke-dasharray:none;stroke-opacity:1"
         d="m 394.12939,418.25049 c 0.63038,-0.23242 1.13916,1.23828 1.6587,1.1499" /><path
         inkscape:connector-curvature="0"
         id="path3504"
         style="fill:none;stroke:#000000;stroke-width:0.125;stroke-linecap:butt;stroke-linejoin:miter;stroke-miterlimit:4;stroke-dasharray:none;stroke-opacity:1"
         d="m 392.7915,420.12988 c 0.24366,0.0332 0.34229,0.3252 0.70801,-0.0659 0.15479,-0.16601 0.37598,-0.18798 0.51953,-0.23242" /><path
         inkscape:connector-curvature="0"
         id="path3506"
         style="fill:none;stroke:#000000;stroke-width:0.125;stroke-linecap:butt;stroke-linejoin:miter;stroke-miterlimit:4;stroke-dasharray:none;stroke-opacity:1"
         d="m 393.91943,419.03516 c -0.33154,-0.38868 -0.85107,-0.68555 -1.10595,-0.57471" /><path
         inkscape:connector-curvature="0"
         id="path3508"
         style="fill:none;stroke:#000000;stroke-width:0.125;stroke-linecap:butt;stroke-linejoin:miter;stroke-miterlimit:4;stroke-dasharray:none;stroke-opacity:1"
         d="m 392.65869,420.87109 c -0.20849,-0.18261 -0.39014,-0.40478 -0.52051,-0.64062" /><path
         inkscape:connector-curvature="0"
         id="path3510"
         style="fill:none;stroke:#000000;stroke-width:0.125;stroke-linecap:butt;stroke-linejoin:miter;stroke-miterlimit:4;stroke-dasharray:none;stroke-opacity:1"
         d="m 391.95654,419.75977 c -0.0249,-0.11377 -0.0347,-0.22706 -0.0273,-0.33741" /></g></g></svg>